<svg width="71.146" height="71.195" viewBox="0 0 71.146 71.195" xmlns="http://www.w3.org/2000/svg"><g id="svgGroup" stroke-linecap="round" fill-rule="evenodd" font-size="9pt" stroke="#000" stroke-width="0" fill="#ffffff" style="stroke:#000;stroke-width:0;fill:#ffffff"><path d="M 12.453 71.193 L 58.693 71.193 C 67.043 71.193 71.144 67.092 71.144 58.888 L 71.144 12.306 C 71.144 4.103 67.043 0.002 58.693 0.002 L 12.453 0.002 C 4.152 0.002 0.002 4.103 0.002 12.306 L 0.002 58.888 C 0.002 67.092 4.152 71.193 12.453 71.193 Z M 23 49.22 L 23 20.998 C 23 18.556 24.221 16.896 26.564 16.896 L 45.217 16.896 C 46.926 16.896 48.195 17.922 48.195 19.826 C 48.195 21.584 46.926 22.756 45.217 22.756 L 30.226 22.756 L 30.226 32.082 L 44.142 32.082 C 45.851 32.082 47.121 33.058 47.121 34.914 C 47.121 36.72 45.851 37.648 44.142 37.648 L 30.226 37.648 L 30.226 47.463 L 45.217 47.463 C 46.926 47.463 48.195 48.537 48.195 50.392 C 48.195 52.199 46.926 53.322 45.217 53.322 L 26.564 53.322 C 24.221 53.322 23 51.662 23 49.22 Z" vector-effect="non-scaling-stroke"/></g></svg>